<?xml version="1.0" encoding="UTF-8" standalone="no"?>
<!-- Uploaded to: SVG Repo, www.svgrepo.com, Generator: SVG Repo Mixer Tools -->

<svg
   width="98"
   height="98"
   viewBox="0 0 2.94 2.94"
   fill="none"
   version="1.1"
   id="svg891"
   sodipodi:docname="bibliography-icon-yellow.svg"
   inkscape:version="1.1.2 (0a00cf5339, 2022-02-04)"
   xmlns:inkscape="http://www.inkscape.org/namespaces/inkscape"
   xmlns:sodipodi="http://sodipodi.sourceforge.net/DTD/sodipodi-0.dtd"
   xmlns="http://www.w3.org/2000/svg"
   xmlns:svg="http://www.w3.org/2000/svg">
  <defs
     id="defs895" />
  <sodipodi:namedview
     id="namedview893"
     pagecolor="#505050"
     bordercolor="#eeeeee"
     borderopacity="1"
     inkscape:pageshadow="0"
     inkscape:pageopacity="0"
     inkscape:pagecheckerboard="0"
     showgrid="false"
     inkscape:zoom="4.6276114"
     inkscape:cx="49.161431"
     inkscape:cy="56.940823"
     inkscape:window-width="1920"
     inkscape:window-height="1016"
     inkscape:window-x="0"
     inkscape:window-y="0"
     inkscape:window-maximized="1"
     inkscape:current-layer="svg891" />
  <path
     d="M 2.0869704,0 H 0.85449604 C 0.319149,0 -1.5448089e-8,0.31899 -1.5448089e-8,0.85407 V 2.08446 C -1.5448089e-8,2.62101 0.319149,2.94 0.85449604,2.94 H 2.0854997 C 2.6208459,2.94 2.939995,2.62101 2.939995,2.08593 V 0.85407 C 2.9414657,0.31899 2.6223167,0 2.0869704,0 Z M 1.4133743,1.44648 c 0,0.45276 -0.098539,0.55419 -0.3618,0.71001 -0.017648,0.01029 -0.036772,0.0147 -0.05589,0.0147 -0.0382425,0 -0.0750075,-0.01911 -0.095598,-0.05439 C 0.86920129,2.06388 0.88684879,1.99626 0.9383288,1.96539 1.1162873,1.85955 1.178058,1.82133 1.189824,1.55526 H 0.91038455 c -0.16030952,0 -0.28532253,-0.12495 -0.28532253,-0.28518 V 1.05252 c 0,-0.16023 0.12501301,-0.28518 0.28532253,-0.28518 H 1.129524 c 0.1573681,0 0.2853218,0.12789 0.2853218,0.28518 v 0.39396 z m 0.9030301,0 c 0,0.45276 -0.098539,0.55419 -0.3618,0.71001 -0.017648,0.01029 -0.036773,0.0147 -0.05589,0.0147 -0.038243,0 -0.075008,-0.01911 -0.095598,-0.05439 C 1.7722314,2.06388 1.7898789,1.99626 1.8413589,1.96539 2.0193174,1.85955 2.0810882,1.82133 2.0928542,1.55526 H 1.8119439 c -0.1603095,0 -0.2853225,-0.12495 -0.2853225,-0.28518 V 1.05252 c 0,-0.16023 0.125013,-0.28518 0.2853225,-0.28518 h 0.2191395 c 0.157368,0 0.2853218,0.12789 0.2853218,0.28518 z"
     fill="#292D32"
     id="path889"
     style="fill:#b0a974;fill-opacity:1;stroke-width:0.147036" />
</svg>
