<?xml version="1.0" encoding="UTF-8" standalone="no"?>
<svg
   shape-rendering="geometricPrecision"
   text-rendering="geometricPrecision"
   image-rendering="optimizeQuality"
   fill-rule="evenodd"
   clip-rule="evenodd"
   viewBox="0 0 512 512"
   version="1.1"
   id="svg10"
   sodipodi:docname="discord-circle-yellow.svg"
   inkscape:version="1.1.2 (0a00cf5339, 2022-02-04)"
   xmlns:inkscape="http://www.inkscape.org/namespaces/inkscape"
   xmlns:sodipodi="http://sodipodi.sourceforge.net/DTD/sodipodi-0.dtd"
   xmlns="http://www.w3.org/2000/svg"
   xmlns:svg="http://www.w3.org/2000/svg">
  <defs
     id="defs14">
    <inkscape:path-effect
       effect="powerclip"
       id="path-effect1019"
       is_visible="true"
       lpeversion="1"
       inverse="true"
       flatten="false"
       hide_clip="false"
       message="Use fill-rule evenodd on &lt;b&gt;fill and stroke&lt;/b&gt; dialog if no flatten result after convert clip to paths." />
    <clipPath
       clipPathUnits="userSpaceOnUse"
       id="clipPath1011">
      <g
         data-name="图层 2"
         id="g1017"
         style="display:none">
        <g
           data-name="Discord Logos"
           id="g1015">
          <path
             fill="#ffffff"
             fill-rule="nonzero"
             d="m 360.932,160.621 a 250.49,250.49 0 0 0 -62.384,-19.182 174.005,174.005 0 0 0 -7.966,16.243 232.677,232.677 0 0 0 -34.618,-2.602 c -11.569,0 -23.196,0.879 -34.623,2.58 -2.334,-5.509 -5.044,-10.972 -7.986,-16.223 a 252.55,252.55 0 0 0 -62.397,19.222 c -39.483,58.408 -50.183,115.357 -44.833,171.497 a 251.546,251.546 0 0 0 76.502,38.398 c 6.169,-8.328 11.695,-17.193 16.386,-26.418 A 161.718,161.718 0 0 1 173.2,331.818 c 2.165,-1.569 4.281,-3.186 6.325,-4.756 23.912,11.23 50.039,17.088 76.473,17.088 26.436,0 52.563,-5.858 76.475,-17.09 2.069,1.689 4.186,3.306 6.325,4.756 a 162.642,162.642 0 0 1 -25.859,12.352 183.919,183.919 0 0 0 16.386,26.396 250.495,250.495 0 0 0 76.553,-38.391 l -0.006,0.006 C 412.15,267.076 395.148,210.65 360.932,160.621 Z M 205.779,297.63 c -14.908,0 -27.226,-13.53 -27.226,-30.174 0,-16.645 11.889,-30.294 27.179,-30.294 15.289,0 27.511,13.649 27.249,30.294 -0.261,16.644 -12.007,30.174 -27.202,30.174 z m 100.439,0 c -14.933,0 -27.202,-13.53 -27.202,-30.174 0,-16.645 11.889,-30.294 27.202,-30.294 15.313,0 27.44,13.649 27.178,30.294 -0.261,16.644 -11.984,30.174 -27.178,30.174 z"
             data-name="Discord Logo - Large - White"
             id="path1013" />
        </g>
      </g>
      <path
         id="lpe_path-effect1019"
         class="powerclip"
         d="M -5,-5 H 517 V 517 H -5 Z m 365.932,165.621 a 250.49,250.49 0 0 0 -62.384,-19.182 174.005,174.005 0 0 0 -7.966,16.243 232.677,232.677 0 0 0 -34.618,-2.602 c -11.569,0 -23.196,0.879 -34.623,2.58 -2.334,-5.509 -5.044,-10.972 -7.986,-16.223 a 252.55,252.55 0 0 0 -62.397,19.222 c -39.483,58.408 -50.183,115.357 -44.833,171.497 a 251.546,251.546 0 0 0 76.502,38.398 c 6.169,-8.328 11.695,-17.193 16.386,-26.418 A 161.718,161.718 0 0 1 173.2,331.818 c 2.165,-1.569 4.281,-3.186 6.325,-4.756 23.912,11.23 50.039,17.088 76.473,17.088 26.436,0 52.563,-5.858 76.475,-17.09 2.069,1.689 4.186,3.306 6.325,4.756 a 162.642,162.642 0 0 1 -25.859,12.352 183.919,183.919 0 0 0 16.386,26.396 250.495,250.495 0 0 0 76.553,-38.391 l -0.006,0.006 C 412.15,267.076 395.148,210.65 360.932,160.621 Z M 205.779,297.63 c 15.195,0 26.941,-13.53 27.202,-30.174 0.262,-16.645 -11.96,-30.294 -27.249,-30.294 -15.29,0 -27.179,13.649 -27.179,30.294 0,16.644 12.318,30.174 27.226,30.174 z m 100.439,0 c 15.194,0 26.917,-13.53 27.178,-30.174 0.262,-16.645 -11.865,-30.294 -27.178,-30.294 -15.313,0 -27.202,13.649 -27.202,30.294 0,16.644 12.269,30.174 27.202,30.174 z" />
    </clipPath>
  </defs>
  <sodipodi:namedview
     id="namedview12"
     pagecolor="#505050"
     bordercolor="#eeeeee"
     borderopacity="1"
     inkscape:pageshadow="0"
     inkscape:pageopacity="0"
     inkscape:pagecheckerboard="0"
     showgrid="false"
     inkscape:zoom="1.4042969"
     inkscape:cx="256"
     inkscape:cy="256"
     inkscape:window-width="1920"
     inkscape:window-height="1016"
     inkscape:window-x="0"
     inkscape:window-y="0"
     inkscape:window-maximized="1"
     inkscape:current-layer="svg10" />
  <path
     fill="#5865F2"
     d="M 256,0 C 397.385,0 512,114.615 512,256 512,397.385 397.385,512 256,512 114.615,512 0,397.385 0,256 0,114.615 114.615,0 256,0 Z"
     id="path2"
     style="fill:#b0a974;fill-opacity:1"
     clip-path="url(#clipPath1011)"
     inkscape:path-effect="#path-effect1019"
     inkscape:original-d="M256 0c141.385 0 256 114.615 256 256S397.385 512 256 512 0 397.385 0 256 114.615 0 256 0z" />
</svg>
