<?xml version="1.0" encoding="UTF-8" standalone="no"?>
<svg
   width="16"
   height="16"
   fill="currentColor"
   class="bi bi-terminal"
   viewBox="0 0 16 16"
   version="1.1"
   id="svg863"
   sodipodi:docname="terminal4.svg"
   inkscape:version="1.1.2 (0a00cf5339, 2022-02-04)"
   xmlns:inkscape="http://www.inkscape.org/namespaces/inkscape"
   xmlns:sodipodi="http://sodipodi.sourceforge.net/DTD/sodipodi-0.dtd"
   xmlns="http://www.w3.org/2000/svg"
   xmlns:svg="http://www.w3.org/2000/svg">
  <defs
     id="defs867">
    <inkscape:path-effect
       effect="fillet_chamfer"
       id="path-effect1905"
       is_visible="true"
       lpeversion="1"
       satellites_param="F,0,0,1,0,1.892214,0,1 @ F,0,0,1,0,2.1017373,0,1 @ F,0,0,1,0,2.066171,0,1 @ F,0,0,1,0,1.8895846,0,1"
       unit="px"
       method="auto"
       mode="F"
       radius="0"
       chamfer_steps="1"
       flexible="false"
       use_knot_distance="true"
       apply_no_radius="true"
       apply_with_radius="true"
       only_selected="false"
       hide_knots="false" />
  </defs>
  <sodipodi:namedview
     id="namedview865"
     pagecolor="#505050"
     bordercolor="#eeeeee"
     borderopacity="1"
     inkscape:pageshadow="0"
     inkscape:pageopacity="0"
     inkscape:pagecheckerboard="0"
     showgrid="false"
     inkscape:zoom="28.226276"
     inkscape:cx="3.6313681"
     inkscape:cy="8.5204295"
     inkscape:window-width="1920"
     inkscape:window-height="1016"
     inkscape:window-x="0"
     inkscape:window-y="0"
     inkscape:window-maximized="1"
     inkscape:current-layer="svg863" />
  <path
     id="rect1555"
     style="fill:#b0a974;fill-opacity:1;stroke:none;stroke-width:15.671;stroke-opacity:1"
     d="M 1.8925781 0 A 1.892214 1.892214 0 0 0 0 1.8925781 L 0 14.111328 A 1.8895846 1.8895846 0 0 0 1.8886719 16 L 13.933594 16 A 2.066171 2.066171 0 0 0 16 13.933594 L 16 2.1015625 A 2.1017373 2.1017373 0 0 0 13.898438 0 L 1.8925781 0 z M 3.1074219 2.6542969 A 0.60075792 0.60075792 0 0 1 3.4785156 2.828125 L 5.8789062 5.2285156 A 0.6 0.6 0 0 1 5.8789062 6.078125 L 3.4785156 8.4785156 A 0.60075801 0.60075801 0 1 1 2.6289062 7.6289062 L 4.6054688 5.6542969 L 2.6289062 3.6777344 A 0.60075792 0.60075792 0 0 1 3.1074219 2.6542969 z M 6.6542969 8.0527344 L 10.253906 8.0527344 A 0.6 0.6 0 0 1 10.253906 9.2539062 L 6.6542969 9.2539062 A 0.6 0.6 0 0 1 6.0546875 8.6542969 A 0.6 0.6 0 0 1 6.6542969 8.0527344 z " />
</svg>
